<svg viewBox="0 0 1129 313" fill="none" xmlns="http://www.w3.org/2000/svg">
<mask id="path-1-outside-1_255_89" maskUnits="userSpaceOnUse" x="33" y="83.0854" width="43" height="50" fill="black">
<rect fill="white" x="33" y="83.0854" width="43" height="50"/>
<path d="M72.1854 86.189L72.1323 86.1968C72.1446 86.1612 72.155 86.123 72.1673 86.0854L47.9813 90.2482L36.0803 92.2461L36.1178 92.2914L36 92.3114L67.3377 129.926C65.8306 116.811 66.9635 103.566 70.6608 90.8703C71.1315 89.3024 71.6319 87.7395 72.1854 86.189Z"/>
</mask>
<path d="M72.1854 86.189L72.1323 86.1968C72.1446 86.1612 72.155 86.123 72.1673 86.0854L47.9813 90.2482L36.0803 92.2461L36.1178 92.2914L36 92.3114L67.3377 129.926C65.8306 116.811 66.9635 103.566 70.6608 90.8703C71.1315 89.3024 71.6319 87.7395 72.1854 86.189Z" fill="#284275"/>
<path d="M72.1854 86.189L72.1323 86.1968C72.1446 86.1612 72.155 86.123 72.1673 86.0854L47.9813 90.2482L36.0803 92.2461L36.1178 92.2914L36 92.3114L67.3377 129.926C65.8306 116.811 66.9635 103.566 70.6608 90.8703C71.1315 89.3024 71.6319 87.7395 72.1854 86.189Z" stroke="white" stroke-width="6" stroke-linejoin="round" mask="url(#path-1-outside-1_255_89)"/>
<mask id="path-2-outside-2_255_89" maskUnits="userSpaceOnUse" x="75.28" y="27" width="283" height="258" fill="black">
<rect fill="white" x="75.28" y="27" width="283" height="258"/>
<path d="M293.835 219.92C295.602 219.027 297.31 218.126 299.019 217.224C300.752 216.207 302.426 215.181 304.057 214.085C325.52 200.5 341.909 179.142 348.935 152.94L349.17 152.044L355.077 129.749L332.803 123.728L268.435 106.385L261.781 104.549L255.118 102.771L251.15 90.8526C240.716 59.34 214.334 37.6044 183.975 31.6484C169.504 28.8089 154.094 29.5573 139.153 34.5215C124.916 39.2125 112.696 47.1282 103.045 57.2593C98.9889 61.4143 95.4464 65.9609 92.3687 70.839C89.7415 74.9182 87.4193 79.2377 85.5309 83.7597C77.2307 102.934 75.7138 125.086 82.7665 146.509L83.7985 149.657L87.319 160.248C89.9921 168.257 93.1378 175.947 96.7619 183.317C100.841 191.659 105.542 199.536 110.81 206.934C137.328 244.49 177.353 269.964 221.729 278.671C236.141 281.498 251.082 282.543 266.106 281.66C280.964 280.801 295.911 277.993 310.693 273.173C310.88 273.112 311.075 273.069 311.261 273.009V273.006C311.294 272.996 311.327 272.988 311.36 272.975L293.835 219.92ZM130.552 119.819C126.433 119.482 122.728 117.34 120.358 114.106C118.567 111.81 117.434 108.876 117.412 105.69C117.308 98.7145 122.129 92.7669 128.711 91.3484C129.642 91.1186 130.606 91.0118 131.614 90.9743C134.811 90.8933 137.742 91.8793 140.164 93.6525C143.802 96.1333 146.267 100.389 146.33 105.174C146.474 113.16 140.111 119.751 132.127 119.892C131.597 119.905 131.063 119.92 130.552 119.819ZM231.602 206.117C229.728 205.751 227.821 205.257 225.914 204.767L217.968 202.617C196.023 196.722 182.898 174.109 188.714 152.267L188.962 151.313C189.214 150.362 189.533 149.448 189.849 148.531C190.036 147.993 190.218 147.454 190.426 146.925C191.116 145.163 191.938 143.481 192.848 141.865C193.132 141.362 193.391 140.844 193.695 140.356C194.279 139.412 194.906 138.505 195.561 137.622C195.956 137.088 196.386 136.583 196.806 136.07C197.901 134.732 199.064 133.465 200.313 132.284C200.743 131.877 201.185 131.482 201.635 131.093C203.046 129.869 204.539 128.748 206.099 127.729C206.483 127.48 206.862 127.223 207.255 126.984C210.317 125.132 213.617 123.67 217.082 122.664C217.388 122.576 217.702 122.51 218.01 122.429C219.993 121.9 222.021 121.519 224.084 121.294C224.628 121.235 225.177 121.195 225.728 121.158C229.256 120.915 232.86 121.092 236.473 121.803C237.381 121.979 238.335 122.225 239.288 122.473L263.798 129.108L270.462 130.886L277.128 132.664L324.066 145.326L326.826 146.077L326.538 146.954C321.672 165.448 310.772 180.753 296.555 191.341C294.959 192.56 293.262 193.701 291.576 194.783C289.891 195.868 288.227 196.837 286.463 197.729C270.23 206.567 250.952 209.913 231.602 206.117Z"/>
</mask>
<path d="M293.835 219.92C295.602 219.027 297.31 218.126 299.019 217.224C300.752 216.207 302.426 215.181 304.057 214.085C325.52 200.5 341.909 179.142 348.935 152.94L349.17 152.044L355.077 129.749L332.803 123.728L268.435 106.385L261.781 104.549L255.118 102.771L251.15 90.8526C240.716 59.34 214.334 37.6044 183.975 31.6484C169.504 28.8089 154.094 29.5573 139.153 34.5215C124.916 39.2125 112.696 47.1282 103.045 57.2593C98.9889 61.4143 95.4464 65.9609 92.3687 70.839C89.7415 74.9182 87.4193 79.2377 85.5309 83.7597C77.2307 102.934 75.7138 125.086 82.7665 146.509L83.7985 149.657L87.319 160.248C89.9921 168.257 93.1378 175.947 96.7619 183.317C100.841 191.659 105.542 199.536 110.81 206.934C137.328 244.49 177.353 269.964 221.729 278.671C236.141 281.498 251.082 282.543 266.106 281.66C280.964 280.801 295.911 277.993 310.693 273.173C310.88 273.112 311.075 273.069 311.261 273.009V273.006C311.294 272.996 311.327 272.988 311.36 272.975L293.835 219.92ZM130.552 119.819C126.433 119.482 122.728 117.34 120.358 114.106C118.567 111.81 117.434 108.876 117.412 105.69C117.308 98.7145 122.129 92.7669 128.711 91.3484C129.642 91.1186 130.606 91.0118 131.614 90.9743C134.811 90.8933 137.742 91.8793 140.164 93.6525C143.802 96.1333 146.267 100.389 146.33 105.174C146.474 113.16 140.111 119.751 132.127 119.892C131.597 119.905 131.063 119.92 130.552 119.819ZM231.602 206.117C229.728 205.751 227.821 205.257 225.914 204.767L217.968 202.617C196.023 196.722 182.898 174.109 188.714 152.267L188.962 151.313C189.214 150.362 189.533 149.448 189.849 148.531C190.036 147.993 190.218 147.454 190.426 146.925C191.116 145.163 191.938 143.481 192.848 141.865C193.132 141.362 193.391 140.844 193.695 140.356C194.279 139.412 194.906 138.505 195.561 137.622C195.956 137.088 196.386 136.583 196.806 136.07C197.901 134.732 199.064 133.465 200.313 132.284C200.743 131.877 201.185 131.482 201.635 131.093C203.046 129.869 204.539 128.748 206.099 127.729C206.483 127.48 206.862 127.223 207.255 126.984C210.317 125.132 213.617 123.67 217.082 122.664C217.388 122.576 217.702 122.51 218.01 122.429C219.993 121.9 222.021 121.519 224.084 121.294C224.628 121.235 225.177 121.195 225.728 121.158C229.256 120.915 232.86 121.092 236.473 121.803C237.381 121.979 238.335 122.225 239.288 122.473L263.798 129.108L270.462 130.886L277.128 132.664L324.066 145.326L326.826 146.077L326.538 146.954C321.672 165.448 310.772 180.753 296.555 191.341C294.959 192.56 293.262 193.701 291.576 194.783C289.891 195.868 288.227 196.837 286.463 197.729C270.23 206.567 250.952 209.913 231.602 206.117Z" fill="#284275"/>
<path d="M293.835 219.92C295.602 219.027 297.31 218.126 299.019 217.224C300.752 216.207 302.426 215.181 304.057 214.085C325.52 200.5 341.909 179.142 348.935 152.94L349.17 152.044L355.077 129.749L332.803 123.728L268.435 106.385L261.781 104.549L255.118 102.771L251.15 90.8526C240.716 59.34 214.334 37.6044 183.975 31.6484C169.504 28.8089 154.094 29.5573 139.153 34.5215C124.916 39.2125 112.696 47.1282 103.045 57.2593C98.9889 61.4143 95.4464 65.9609 92.3687 70.839C89.7415 74.9182 87.4193 79.2377 85.5309 83.7597C77.2307 102.934 75.7138 125.086 82.7665 146.509L83.7985 149.657L87.319 160.248C89.9921 168.257 93.1378 175.947 96.7619 183.317C100.841 191.659 105.542 199.536 110.81 206.934C137.328 244.49 177.353 269.964 221.729 278.671C236.141 281.498 251.082 282.543 266.106 281.66C280.964 280.801 295.911 277.993 310.693 273.173C310.88 273.112 311.075 273.069 311.261 273.009V273.006C311.294 272.996 311.327 272.988 311.36 272.975L293.835 219.92ZM130.552 119.819C126.433 119.482 122.728 117.34 120.358 114.106C118.567 111.81 117.434 108.876 117.412 105.69C117.308 98.7145 122.129 92.7669 128.711 91.3484C129.642 91.1186 130.606 91.0118 131.614 90.9743C134.811 90.8933 137.742 91.8793 140.164 93.6525C143.802 96.1333 146.267 100.389 146.33 105.174C146.474 113.16 140.111 119.751 132.127 119.892C131.597 119.905 131.063 119.92 130.552 119.819ZM231.602 206.117C229.728 205.751 227.821 205.257 225.914 204.767L217.968 202.617C196.023 196.722 182.898 174.109 188.714 152.267L188.962 151.313C189.214 150.362 189.533 149.448 189.849 148.531C190.036 147.993 190.218 147.454 190.426 146.925C191.116 145.163 191.938 143.481 192.848 141.865C193.132 141.362 193.391 140.844 193.695 140.356C194.279 139.412 194.906 138.505 195.561 137.622C195.956 137.088 196.386 136.583 196.806 136.07C197.901 134.732 199.064 133.465 200.313 132.284C200.743 131.877 201.185 131.482 201.635 131.093C203.046 129.869 204.539 128.748 206.099 127.729C206.483 127.48 206.862 127.223 207.255 126.984C210.317 125.132 213.617 123.67 217.082 122.664C217.388 122.576 217.702 122.51 218.01 122.429C219.993 121.9 222.021 121.519 224.084 121.294C224.628 121.235 225.177 121.195 225.728 121.158C229.256 120.915 232.86 121.092 236.473 121.803C237.381 121.979 238.335 122.225 239.288 122.473L263.798 129.108L270.462 130.886L277.128 132.664L324.066 145.326L326.826 146.077L326.538 146.954C321.672 165.448 310.772 180.753 296.555 191.341C294.959 192.56 293.262 193.701 291.576 194.783C289.891 195.868 288.227 196.837 286.463 197.729C270.23 206.567 250.952 209.913 231.602 206.117Z" stroke="white" stroke-width="6" stroke-linejoin="round" mask="url(#path-2-outside-2_255_89)"/>
<mask id="path-3-outside-3_255_89" maskUnits="userSpaceOnUse" x="314.723" y="224.213" width="56" height="45" fill="black">
<rect fill="white" x="314.723" y="224.213" width="56" height="45"/>
<path d="M367.342 245.626L367.466 245.56L335.91 233.937L317.824 227.213L317.844 227.284L317.723 227.238L328.103 265.983L351.432 253.88L367.431 245.658L367.342 245.626Z"/>
</mask>
<path d="M367.342 245.626L367.466 245.56L335.91 233.937L317.824 227.213L317.844 227.284L317.723 227.238L328.103 265.983L351.432 253.88L367.431 245.658L367.342 245.626Z" fill="#284275"/>
<path d="M367.342 245.626L367.466 245.56L335.91 233.937L317.824 227.213L317.844 227.284L317.723 227.238L328.103 265.983L351.432 253.88L367.431 245.658L367.342 245.626Z" stroke="white" stroke-width="6" stroke-linejoin="round" mask="url(#path-3-outside-3_255_89)"/>
<path d="M746.441 142.48L820.809 221.84L821.961 235.792L747.593 156.56L746.441 142.48ZM746.697 224.912V234H736.073V232.72C736.073 232.72 736.457 232.72 737.225 232.72C737.993 232.72 738.419 232.72 738.505 232.72C740.638 232.72 742.473 231.952 744.009 230.416C745.545 228.88 746.312 227.045 746.312 224.912H746.697ZM752.201 224.912C752.201 227.045 752.969 228.88 754.505 230.416C756.041 231.952 757.875 232.72 760.009 232.72C760.094 232.72 760.521 232.72 761.289 232.72C762.057 232.72 762.441 232.72 762.441 232.72V234H751.817V224.912H752.201ZM746.441 142.48L752.073 149.648L752.201 234H746.312V158.48C746.312 154.128 746.099 150.373 745.673 147.216C745.331 144.059 745.161 142.48 745.161 142.48H746.441ZM821.961 144.4V219.408C821.961 222.139 822.046 224.784 822.217 227.344C822.387 229.819 822.558 231.867 822.729 233.488C822.985 235.024 823.113 235.792 823.113 235.792H821.961L816.201 229.008V144.4H821.961ZM832.201 144.4V145.68C832.201 145.68 831.817 145.68 831.049 145.68C830.281 145.68 829.897 145.68 829.897 145.68C827.763 145.68 825.929 146.448 824.393 147.984C822.857 149.435 822.046 151.269 821.961 153.488H821.577V144.4H832.201ZM805.833 144.4H816.457V153.488H816.201C816.115 151.269 815.305 149.435 813.769 147.984C812.318 146.448 810.483 145.68 808.265 145.68C808.265 145.68 807.881 145.68 807.113 145.68C806.345 145.68 805.918 145.68 805.833 145.68V144.4ZM861.136 157.2V234H852.944V157.2H861.136ZM895.568 230.032L895.312 234H860.88V230.032H895.568ZM889.552 193.68V197.52H860.88V193.68H889.552ZM895.44 157.2V161.168H860.88V157.2H895.44ZM902.736 215.696L895.696 234H876.24L880.592 230.032C884.858 230.032 888.272 229.435 890.832 228.24C893.477 226.96 895.61 225.253 897.232 223.12C898.853 220.901 900.261 218.427 901.456 215.696H902.736ZM889.552 197.264V204.56H888.144V202.896C888.144 201.445 887.717 200.208 886.864 199.184C886.01 198.075 884.688 197.52 882.896 197.52V197.264H889.552ZM889.552 186.64V193.936H882.896V193.68C884.688 193.68 886.01 193.168 886.864 192.144C887.717 191.035 888.144 189.755 888.144 188.304V186.64H889.552ZM895.44 160.784V169.616H894.032V167.696C894.032 165.904 893.434 164.368 892.24 163.088C891.13 161.808 889.594 161.168 887.632 161.168V160.784H895.44ZM895.44 155.152V158.48L880.848 157.2C883.493 157.2 886.309 156.987 889.296 156.56C892.282 156.048 894.33 155.579 895.44 155.152ZM853.2 225.808L854.864 234H843.728V232.72C843.728 232.72 844.026 232.72 844.624 232.72C845.221 232.72 845.52 232.72 845.52 232.72C847.653 232.72 849.402 232.037 850.768 230.672C852.133 229.307 852.858 227.685 852.944 225.808H853.2ZM853.2 165.264H852.944C852.858 163.301 852.133 161.68 850.768 160.4C849.402 159.12 847.653 158.48 845.52 158.48C845.52 158.48 845.221 158.48 844.624 158.48C844.026 158.48 843.728 158.48 843.728 158.48V157.2H854.864L853.2 165.264ZM926.019 157.328L979.395 233.872H969.027L915.907 157.328H926.019ZM927.299 225.808C926.189 227.429 926.189 229.008 927.299 230.544C928.493 231.995 929.901 232.72 931.523 232.72C931.523 232.72 931.779 232.72 932.291 232.72C932.803 232.72 933.059 232.72 933.059 232.72V234H905.154V232.72H906.819C909.379 232.72 911.725 232.08 913.859 230.8C915.992 229.435 917.741 227.899 919.107 226.192L927.299 225.808ZM944.451 193.936L947.011 199.184L921.283 233.872H913.219L944.451 193.936ZM963.523 225.936L974.019 226.32C975.299 227.941 977.048 229.435 979.267 230.8C981.485 232.08 983.875 232.72 986.435 232.72H988.099V234H957.763V232.72C957.763 232.72 958.019 232.72 958.531 232.72C959.043 232.72 959.299 232.72 959.299 232.72C961.005 232.72 962.371 231.995 963.395 230.544C964.504 229.008 964.547 227.472 963.523 225.936ZM937.283 157.2V158.48C937.283 158.48 937.027 158.48 936.515 158.48C936.003 158.48 935.747 158.48 935.747 158.48C934.125 158.48 932.76 159.248 931.651 160.784C930.541 162.235 930.499 163.728 931.523 165.264L921.283 164.88C920.003 163.173 918.253 161.68 916.035 160.4C913.816 159.12 911.427 158.48 908.867 158.48H907.203V157.2H937.283ZM977.347 157.328L950.083 195.216L946.883 189.84L968.643 157.328H977.347ZM985.923 157.2V158.48H984.131C981.571 158.48 979.181 159.12 976.963 160.4C974.829 161.68 973.123 163.216 971.843 165.008L963.267 165.392C964.291 163.771 964.248 162.235 963.139 160.784C962.115 159.248 960.749 158.48 959.043 158.48C959.043 158.48 958.787 158.48 958.275 158.48C957.763 158.48 957.507 158.48 957.507 158.48V157.2H985.923ZM1027.9 157.584V234H1019.58V157.584H1027.9ZM1058.88 157.072V160.912H988.608V157.072H1058.88ZM1058.88 160.656V169.488H1057.47V167.44C1057.47 165.648 1056.87 164.155 1055.68 162.96C1054.57 161.68 1053.03 160.997 1051.07 160.912V160.656H1058.88ZM1058.88 155.024V158.352L1044.54 157.072C1046.25 157.072 1048.04 156.987 1049.92 156.816C1051.88 156.56 1053.67 156.261 1055.3 155.92C1056.92 155.579 1058.11 155.28 1058.88 155.024ZM1019.84 225.808V234H1010.5V232.72C1010.58 232.72 1010.84 232.72 1011.26 232.72C1011.78 232.72 1012.03 232.72 1012.03 232.72C1014.08 232.72 1015.83 232.037 1017.28 230.672C1018.73 229.307 1019.5 227.685 1019.58 225.808H1019.84ZM1027.52 225.808H1027.9C1027.99 227.685 1028.76 229.307 1030.21 230.672C1031.66 232.037 1033.41 232.72 1035.46 232.72C1035.46 232.72 1035.67 232.72 1036.1 232.72C1036.61 232.72 1036.86 232.72 1036.86 232.72V234H1027.52V225.808ZM996.416 160.656V160.912C994.453 160.997 992.874 161.68 991.68 162.96C990.57 164.155 990.016 165.648 990.016 167.44V169.488H988.608V160.656H996.416ZM988.608 155.024C989.376 155.28 990.528 155.579 992.064 155.92C993.685 156.261 995.477 156.56 997.44 156.816C999.402 156.987 1001.24 157.072 1002.94 157.072L988.608 158.352V155.024Z" fill="#C6E8DD" fill-opacity="0.76"/>
<path d="M389.916 126.664H370.46C370.374 132.296 371.398 137.16 373.532 141.256C375.665 145.352 378.524 148.723 382.108 151.368C385.777 154.013 389.958 155.933 394.652 157.128C399.43 158.408 404.337 159.048 409.372 159.048C415.601 159.048 421.062 158.323 425.756 156.872C430.534 155.421 434.502 153.416 437.66 150.856C440.902 148.211 443.334 145.096 444.956 141.512C446.577 137.928 447.388 134.045 447.388 129.864C447.388 124.744 446.278 120.563 444.06 117.32C441.926 113.992 439.366 111.347 436.38 109.384C433.393 107.421 430.364 106.013 427.292 105.16C424.305 104.221 421.958 103.581 420.252 103.24C414.534 101.789 409.884 100.595 406.3 99.656C402.801 98.7173 400.028 97.7787 397.98 96.84C396.017 95.9013 394.694 94.8773 394.012 93.768C393.329 92.6587 392.988 91.208 392.988 89.416C392.988 87.4533 393.414 85.832 394.268 84.552C395.121 83.272 396.188 82.2053 397.468 81.352C398.833 80.4987 400.326 79.9013 401.948 79.56C403.569 79.2187 405.19 79.048 406.812 79.048C409.286 79.048 411.548 79.2613 413.596 79.688C415.729 80.1147 417.606 80.84 419.228 81.864C420.849 82.888 422.129 84.296 423.068 86.088C424.092 87.88 424.689 90.1413 424.86 92.872H444.316C444.316 87.5813 443.292 83.1013 441.244 79.432C439.281 75.6773 436.593 72.6053 433.18 70.216C429.766 67.8267 425.841 66.12 421.404 65.096C417.052 63.9867 412.486 63.432 407.708 63.432C403.612 63.432 399.516 63.9867 395.42 65.096C391.324 66.2053 387.654 67.912 384.412 70.216C381.169 72.52 378.524 75.4213 376.476 78.92C374.513 82.3333 373.532 86.3867 373.532 91.08C373.532 95.2613 374.3 98.8453 375.836 101.832C377.457 104.733 379.548 107.165 382.108 109.128C384.668 111.091 387.569 112.712 390.812 113.992C394.054 115.187 397.382 116.211 400.796 117.064C404.124 118.003 407.409 118.856 410.652 119.624C413.894 120.392 416.796 121.288 419.356 122.312C421.916 123.336 423.964 124.616 425.5 126.152C427.121 127.688 427.932 129.693 427.932 132.168C427.932 134.472 427.334 136.392 426.14 137.928C424.945 139.379 423.452 140.531 421.66 141.384C419.868 142.237 417.948 142.835 415.9 143.176C413.852 143.432 411.932 143.56 410.14 143.56C407.494 143.56 404.934 143.261 402.46 142.664C399.985 141.981 397.809 141 395.932 139.72C394.14 138.355 392.689 136.605 391.58 134.472C390.47 132.339 389.916 129.736 389.916 126.664ZM607.313 122.44V65.608H587.217V122.44C587.217 129.267 585.851 134.301 583.121 137.544C580.39 140.701 575.441 142.28 568.273 142.28C564.177 142.28 560.891 141.725 558.417 140.616C556.027 139.421 554.15 137.928 552.785 136.136C551.419 134.259 550.523 132.125 550.097 129.736C549.67 127.347 549.457 124.915 549.457 122.44V65.608H529.361V122.44C529.361 134.899 532.731 144.115 539.473 150.088C546.299 156.061 555.899 159.048 568.273 159.048C580.475 159.048 590.033 156.061 596.945 150.088C603.857 144.029 607.313 134.813 607.313 122.44ZM708.716 126.664H689.26C689.174 132.296 690.198 137.16 692.332 141.256C694.465 145.352 697.324 148.723 700.908 151.368C704.577 154.013 708.758 155.933 713.452 157.128C718.23 158.408 723.137 159.048 728.172 159.048C734.401 159.048 739.862 158.323 744.556 156.872C749.334 155.421 753.302 153.416 756.46 150.856C759.702 148.211 762.134 145.096 763.756 141.512C765.377 137.928 766.188 134.045 766.188 129.864C766.188 124.744 765.078 120.563 762.86 117.32C760.726 113.992 758.166 111.347 755.18 109.384C752.193 107.421 749.164 106.013 746.092 105.16C743.105 104.221 740.758 103.581 739.052 103.24C733.334 101.789 728.684 100.595 725.1 99.656C721.601 98.7173 718.828 97.7787 716.78 96.84C714.817 95.9013 713.494 94.8773 712.812 93.768C712.129 92.6587 711.788 91.208 711.788 89.416C711.788 87.4533 712.214 85.832 713.068 84.552C713.921 83.272 714.988 82.2053 716.268 81.352C717.633 80.4987 719.126 79.9013 720.748 79.56C722.369 79.2187 723.99 79.048 725.612 79.048C728.086 79.048 730.348 79.2613 732.396 79.688C734.529 80.1147 736.406 80.84 738.028 81.864C739.649 82.888 740.929 84.296 741.868 86.088C742.892 87.88 743.489 90.1413 743.66 92.872H763.116C763.116 87.5813 762.092 83.1013 760.044 79.432C758.081 75.6773 755.393 72.6053 751.979 70.216C748.566 67.8267 744.641 66.12 740.204 65.096C735.852 63.9867 731.286 63.432 726.508 63.432C722.412 63.432 718.316 63.9867 714.22 65.096C710.124 66.2053 706.454 67.912 703.212 70.216C699.969 72.52 697.324 75.4213 695.276 78.92C693.313 82.3333 692.332 86.3867 692.332 91.08C692.332 95.2613 693.1 98.8453 694.635 101.832C696.257 104.733 698.348 107.165 700.908 109.128C703.468 111.091 706.369 112.712 709.612 113.992C712.854 115.187 716.182 116.211 719.596 117.064C722.924 118.003 726.209 118.856 729.452 119.624C732.694 120.392 735.596 121.288 738.156 122.312C740.716 123.336 742.764 124.616 744.3 126.152C745.921 127.688 746.732 129.693 746.732 132.168C746.732 134.472 746.134 136.392 744.94 137.928C743.745 139.379 742.252 140.531 740.46 141.384C738.668 142.237 736.748 142.835 734.7 143.176C732.652 143.432 730.732 143.56 728.94 143.56C726.294 143.56 723.734 143.261 721.26 142.664C718.785 141.981 716.609 141 714.732 139.72C712.94 138.355 711.489 136.605 710.38 134.472C709.27 132.339 708.716 129.736 708.716 126.664ZM871.585 121.672L883.489 88.136H883.745L895.265 121.672H871.585ZM873.505 65.608L838.945 157H859.169L866.337 136.648H900.513L907.425 157H928.289L894.113 65.608H873.505ZM1006.57 65.608V157H1025.39V95.816H1025.64L1063.66 157H1083.75V65.608H1064.94V126.92H1064.68L1026.54 65.608H1006.57Z" fill="white"/>
</svg>
