<svg width="250" height="250" viewBox="0 0 250 250" fill="none" xmlns="http://www.w3.org/2000/svg">
<path d="M97.0513 209.84L110.995 224.72L111.211 227.336L97.2673 212.48L97.0513 209.84ZM97.0993 225.296V227H95.1073V226.76C95.1073 226.76 95.1793 226.76 95.3233 226.76C95.4673 226.76 95.5473 226.76 95.5633 226.76C95.9633 226.76 96.3073 226.616 96.5953 226.328C96.8833 226.04 97.0273 225.696 97.0273 225.296H97.0993ZM98.1313 225.296C98.1313 225.696 98.2753 226.04 98.5633 226.328C98.8513 226.616 99.1953 226.76 99.5953 226.76C99.6113 226.76 99.6913 226.76 99.8353 226.76C99.9793 226.76 100.051 226.76 100.051 226.76V227H98.0593V225.296H98.1313ZM97.0513 209.84L98.1073 211.184L98.1313 227H97.0273V212.84C97.0273 212.024 96.9873 211.32 96.9073 210.728C96.8433 210.136 96.8113 209.84 96.8113 209.84H97.0513ZM111.211 210.2V224.264C111.211 224.776 111.227 225.272 111.259 225.752C111.291 226.216 111.323 226.6 111.355 226.904C111.403 227.192 111.427 227.336 111.427 227.336H111.211L110.131 226.064V210.2H111.211ZM113.131 210.2V210.44C113.131 210.44 113.059 210.44 112.915 210.44C112.771 210.44 112.699 210.44 112.699 210.44C112.299 210.44 111.955 210.584 111.667 210.872C111.379 211.144 111.227 211.488 111.211 211.904H111.139V210.2H113.131ZM108.187 210.2H110.179V211.904H110.131C110.115 211.488 109.963 211.144 109.675 210.872C109.403 210.584 109.059 210.44 108.643 210.44C108.643 210.44 108.571 210.44 108.427 210.44C108.283 210.44 108.203 210.44 108.187 210.44V210.2ZM118.557 212.6V227H117.021V212.6H118.557ZM125.013 226.256L124.965 227H118.509V226.256H125.013ZM123.885 219.44V220.16H118.509V219.44H123.885ZM124.989 212.6V213.344H118.509V212.6H124.989ZM126.357 223.568L125.037 227H121.389L122.205 226.256C123.005 226.256 123.645 226.144 124.125 225.92C124.621 225.68 125.021 225.36 125.325 224.96C125.629 224.544 125.893 224.08 126.117 223.568H126.357ZM123.885 220.112V221.48H123.621V221.168C123.621 220.896 123.541 220.664 123.381 220.472C123.221 220.264 122.973 220.16 122.637 220.16V220.112H123.885ZM123.885 218.12V219.488H122.637V219.44C122.973 219.44 123.221 219.344 123.381 219.152C123.541 218.944 123.621 218.704 123.621 218.432V218.12H123.885ZM124.989 213.272V214.928H124.725V214.568C124.725 214.232 124.613 213.944 124.389 213.704C124.181 213.464 123.893 213.344 123.525 213.344V213.272H124.989ZM124.989 212.216V212.84L122.253 212.6C122.749 212.6 123.277 212.56 123.837 212.48C124.397 212.384 124.781 212.296 124.989 212.216ZM117.069 225.464L117.381 227H115.293V226.76C115.293 226.76 115.349 226.76 115.461 226.76C115.573 226.76 115.629 226.76 115.629 226.76C116.029 226.76 116.357 226.632 116.613 226.376C116.869 226.12 117.005 225.816 117.021 225.464H117.069ZM117.069 214.112H117.021C117.005 213.744 116.869 213.44 116.613 213.2C116.357 212.96 116.029 212.84 115.629 212.84C115.629 212.84 115.573 212.84 115.461 212.84C115.349 212.84 115.293 212.84 115.293 212.84V212.6H117.381L117.069 214.112ZM130.722 212.624L140.73 226.976H138.786L128.826 212.624H130.722ZM130.962 225.464C130.754 225.768 130.754 226.064 130.962 226.352C131.186 226.624 131.45 226.76 131.754 226.76C131.754 226.76 131.802 226.76 131.898 226.76C131.994 226.76 132.042 226.76 132.042 226.76V227H126.81V226.76H127.122C127.602 226.76 128.042 226.64 128.442 226.4C128.842 226.144 129.17 225.856 129.426 225.536L130.962 225.464ZM134.178 219.488L134.658 220.472L129.834 226.976H128.322L134.178 219.488ZM137.754 225.488L139.722 225.56C139.962 225.864 140.29 226.144 140.706 226.4C141.122 226.64 141.57 226.76 142.05 226.76H142.362V227H136.674V226.76C136.674 226.76 136.722 226.76 136.818 226.76C136.914 226.76 136.962 226.76 136.962 226.76C137.282 226.76 137.538 226.624 137.73 226.352C137.938 226.064 137.946 225.776 137.754 225.488ZM132.834 212.6V212.84C132.834 212.84 132.786 212.84 132.69 212.84C132.594 212.84 132.546 212.84 132.546 212.84C132.242 212.84 131.986 212.984 131.778 213.272C131.57 213.544 131.562 213.824 131.754 214.112L129.834 214.04C129.594 213.72 129.266 213.44 128.85 213.2C128.434 212.96 127.986 212.84 127.506 212.84H127.194V212.6H132.834ZM140.346 212.624L135.234 219.728L134.634 218.72L138.714 212.624H140.346ZM141.954 212.6V212.84H141.618C141.138 212.84 140.69 212.96 140.274 213.2C139.874 213.44 139.554 213.728 139.314 214.064L137.706 214.136C137.898 213.832 137.89 213.544 137.682 213.272C137.49 212.984 137.234 212.84 136.914 212.84C136.914 212.84 136.866 212.84 136.77 212.84C136.674 212.84 136.626 212.84 136.626 212.84V212.6H141.954ZM149.826 212.672V227H148.266V212.672H149.826ZM155.634 212.576V213.296H142.458V212.576H155.634ZM155.634 213.248V214.904H155.37V214.52C155.37 214.184 155.258 213.904 155.034 213.68C154.826 213.44 154.538 213.312 154.17 213.296V213.248H155.634ZM155.634 212.192V212.816L152.946 212.576C153.266 212.576 153.602 212.56 153.954 212.528C154.322 212.48 154.658 212.424 154.962 212.36C155.266 212.296 155.49 212.24 155.634 212.192ZM148.314 225.464V227H146.562V226.76C146.578 226.76 146.626 226.76 146.706 226.76C146.802 226.76 146.85 226.76 146.85 226.76C147.234 226.76 147.562 226.632 147.834 226.376C148.106 226.12 148.25 225.816 148.266 225.464H148.314ZM149.754 225.464H149.826C149.842 225.816 149.986 226.12 150.258 226.376C150.53 226.632 150.858 226.76 151.242 226.76C151.242 226.76 151.282 226.76 151.362 226.76C151.458 226.76 151.506 226.76 151.506 226.76V227H149.754V225.464ZM143.922 213.248V213.296C143.554 213.312 143.258 213.44 143.034 213.68C142.826 213.904 142.722 214.184 142.722 214.52V214.904H142.458V213.248H143.922ZM142.458 212.192C142.602 212.24 142.818 212.296 143.106 212.36C143.41 212.424 143.746 212.48 144.114 212.528C144.482 212.56 144.826 212.576 145.146 212.576L142.458 212.816V212.192Z" fill="#646464" fill-opacity="0.76"/>
<path d="M39.9789 196.416H35.1149C35.0935 197.824 35.3495 199.04 35.8829 200.064C36.4162 201.088 37.1309 201.931 38.0269 202.592C38.9442 203.253 39.9895 203.733 41.1629 204.032C42.3575 204.352 43.5842 204.512 44.8429 204.512C46.4002 204.512 47.7655 204.331 48.9389 203.968C50.1335 203.605 51.1255 203.104 51.9149 202.464C52.7255 201.803 53.3335 201.024 53.7389 200.128C54.1442 199.232 54.3469 198.261 54.3469 197.216C54.3469 195.936 54.0695 194.891 53.5149 194.08C52.9815 193.248 52.3415 192.587 51.5949 192.096C50.8482 191.605 50.0909 191.253 49.3229 191.04C48.5762 190.805 47.9895 190.645 47.5629 190.56C46.1335 190.197 44.9709 189.899 44.0749 189.664C43.2002 189.429 42.5069 189.195 41.9949 188.96C41.5042 188.725 41.1735 188.469 41.0029 188.192C40.8322 187.915 40.7469 187.552 40.7469 187.104C40.7469 186.613 40.8535 186.208 41.0669 185.888C41.2802 185.568 41.5469 185.301 41.8669 185.088C42.2082 184.875 42.5815 184.725 42.9869 184.64C43.3922 184.555 43.7975 184.512 44.2029 184.512C44.8215 184.512 45.3869 184.565 45.8989 184.672C46.4322 184.779 46.9015 184.96 47.3069 185.216C47.7122 185.472 48.0322 185.824 48.2669 186.272C48.5229 186.72 48.6722 187.285 48.7149 187.968H53.5789C53.5789 186.645 53.3229 185.525 52.8109 184.608C52.3202 183.669 51.6482 182.901 50.7949 182.304C49.9415 181.707 48.9602 181.28 47.8509 181.024C46.7629 180.747 45.6215 180.608 44.4269 180.608C43.4029 180.608 42.3789 180.747 41.3549 181.024C40.3309 181.301 39.4135 181.728 38.6029 182.304C37.7922 182.88 37.1309 183.605 36.6189 184.48C36.1282 185.333 35.8829 186.347 35.8829 187.52C35.8829 188.565 36.0749 189.461 36.4589 190.208C36.8642 190.933 37.3869 191.541 38.0269 192.032C38.6669 192.523 39.3922 192.928 40.2029 193.248C41.0135 193.547 41.8455 193.803 42.6989 194.016C43.5309 194.251 44.3522 194.464 45.1629 194.656C45.9735 194.848 46.6989 195.072 47.3389 195.328C47.9789 195.584 48.4909 195.904 48.8749 196.288C49.2802 196.672 49.4829 197.173 49.4829 197.792C49.4829 198.368 49.3335 198.848 49.0349 199.232C48.7362 199.595 48.3629 199.883 47.9149 200.096C47.4669 200.309 46.9869 200.459 46.4749 200.544C45.9629 200.608 45.4829 200.64 45.0349 200.64C44.3735 200.64 43.7335 200.565 43.1149 200.416C42.4962 200.245 41.9522 200 41.4829 199.68C41.0349 199.339 40.6722 198.901 40.3949 198.368C40.1175 197.835 39.9789 197.184 39.9789 196.416ZM94.3281 195.36V181.152H89.3041V195.36C89.3041 197.067 88.9628 198.325 88.2801 199.136C87.5975 199.925 86.3601 200.32 84.5681 200.32C83.5441 200.32 82.7228 200.181 82.1041 199.904C81.5068 199.605 81.0375 199.232 80.6961 198.784C80.3548 198.315 80.1308 197.781 80.0241 197.184C79.9175 196.587 79.8641 195.979 79.8641 195.36V181.152H74.8401V195.36C74.8401 198.475 75.6828 200.779 77.3681 202.272C79.0748 203.765 81.4748 204.512 84.5681 204.512C87.6188 204.512 90.0081 203.765 91.7361 202.272C93.4641 200.757 94.3281 198.453 94.3281 195.36ZM119.679 196.416H114.815C114.794 197.824 115.05 199.04 115.583 200.064C116.116 201.088 116.831 201.931 117.727 202.592C118.644 203.253 119.69 203.733 120.863 204.032C122.058 204.352 123.284 204.512 124.543 204.512C126.1 204.512 127.466 204.331 128.639 203.968C129.834 203.605 130.826 203.104 131.615 202.464C132.426 201.803 133.034 201.024 133.439 200.128C133.844 199.232 134.047 198.261 134.047 197.216C134.047 195.936 133.77 194.891 133.215 194.08C132.682 193.248 132.042 192.587 131.295 192.096C130.548 191.605 129.791 191.253 129.023 191.04C128.276 190.805 127.69 190.645 127.263 190.56C125.834 190.197 124.671 189.899 123.775 189.664C122.9 189.429 122.207 189.195 121.695 188.96C121.204 188.725 120.874 188.469 120.703 188.192C120.532 187.915 120.447 187.552 120.447 187.104C120.447 186.613 120.554 186.208 120.767 185.888C120.98 185.568 121.247 185.301 121.567 185.088C121.908 184.875 122.282 184.725 122.687 184.64C123.092 184.555 123.498 184.512 123.903 184.512C124.522 184.512 125.087 184.565 125.599 184.672C126.132 184.779 126.602 184.96 127.007 185.216C127.412 185.472 127.732 185.824 127.967 186.272C128.223 186.72 128.372 187.285 128.415 187.968H133.279C133.279 186.645 133.023 185.525 132.511 184.608C132.02 183.669 131.348 182.901 130.495 182.304C129.642 181.707 128.66 181.28 127.551 181.024C126.463 180.747 125.322 180.608 124.127 180.608C123.103 180.608 122.079 180.747 121.055 181.024C120.031 181.301 119.114 181.728 118.303 182.304C117.492 182.88 116.831 183.605 116.319 184.48C115.828 185.333 115.583 186.347 115.583 187.52C115.583 188.565 115.775 189.461 116.159 190.208C116.564 190.933 117.087 191.541 117.727 192.032C118.367 192.523 119.092 192.928 119.903 193.248C120.714 193.547 121.546 193.803 122.399 194.016C123.231 194.251 124.052 194.464 124.863 194.656C125.674 194.848 126.399 195.072 127.039 195.328C127.679 195.584 128.191 195.904 128.575 196.288C128.98 196.672 129.183 197.173 129.183 197.792C129.183 198.368 129.034 198.848 128.735 199.232C128.436 199.595 128.063 199.883 127.615 200.096C127.167 200.309 126.687 200.459 126.175 200.544C125.663 200.608 125.183 200.64 124.735 200.64C124.074 200.64 123.434 200.565 122.815 200.416C122.196 200.245 121.652 200 121.183 199.68C120.735 199.339 120.372 198.901 120.095 198.368C119.818 197.835 119.679 197.184 119.679 196.416ZM160.396 195.168L163.372 186.784H163.436L166.316 195.168H160.396ZM160.876 181.152L152.236 204H157.292L159.084 198.912H167.628L169.356 204H174.572L166.028 181.152H160.876ZM194.142 181.152V204H198.846V188.704H198.91L208.414 204H213.438V181.152H208.734V196.48H208.67L199.134 181.152H194.142Z" fill="#284275"/>
<path d="M43.602 50.0967L43.5688 50.1015C43.5765 50.0793 43.583 50.0554 43.5907 50.032L28.4837 52.6321L21.0501 53.88L21.0736 53.9083L21 53.9208L40.574 77.4157C39.6327 69.2239 40.3403 60.9504 42.6497 53.0207C42.9437 52.0413 43.2562 51.0652 43.602 50.0967Z" fill="#284275" stroke="white" stroke-width="5" stroke-linejoin="round"/>
<path d="M182.048 133.627C183.152 133.069 184.218 132.507 185.286 131.943C186.368 131.308 187.414 130.667 188.432 129.983C201.839 121.497 212.076 108.156 216.464 91.79L216.611 91.2307L220.301 77.305L206.388 73.5439L166.183 62.7112L162.026 61.5644L157.864 60.4539L155.386 53.0095C148.869 33.3262 132.39 19.7498 113.427 16.0296C104.389 14.256 94.7631 14.7235 85.431 17.8242C76.5381 20.7543 68.9056 25.6985 62.8776 32.0266C60.3438 34.6218 58.1311 37.4617 56.2087 40.5087C54.5677 43.0566 53.1172 45.7546 51.9377 48.5791C46.7532 60.5554 45.8058 74.3923 50.211 87.7733L50.8556 89.7398L53.0546 96.3549C54.7242 101.357 56.6891 106.161 58.9527 110.764C61.5007 115.975 64.4368 120.895 67.7272 125.516C84.2911 148.974 109.291 164.885 137.009 170.324C146.011 172.089 155.343 172.742 164.728 172.191C174.008 171.654 183.345 169.901 192.577 166.89C192.694 166.852 192.816 166.825 192.932 166.787V166.785C192.953 166.779 192.973 166.774 192.994 166.766L182.048 133.627ZM80.0586 71.1023C77.4855 70.892 75.1713 69.5539 73.6913 67.5337C72.5728 66.0998 71.8652 64.2672 71.851 62.2769C71.7863 57.9202 74.7973 54.2052 78.9089 53.3192C79.4904 53.1756 80.0921 53.1089 80.7221 53.0855C82.7189 53.0349 84.5495 53.6508 86.0627 54.7584C88.3344 56.3079 89.8743 58.9663 89.9135 61.955C90.0037 66.9433 86.0295 71.0598 81.0424 71.148C80.7112 71.1561 80.378 71.1654 80.0586 71.1023ZM143.176 125.006C142.006 124.777 140.814 124.468 139.623 124.162L134.66 122.82C120.953 119.137 112.754 105.013 116.387 91.3698L116.542 90.7742C116.7 90.1802 116.899 89.6088 117.097 89.0366C117.213 88.7002 117.327 88.3637 117.457 88.0334C117.888 86.9327 118.401 85.8821 118.97 84.8728C119.147 84.5582 119.309 84.2347 119.499 83.9298C119.863 83.3406 120.255 82.7737 120.664 82.2225C120.911 81.8889 121.18 81.5731 121.442 81.2528C122.126 80.417 122.852 79.6256 123.633 78.8881C123.901 78.6337 124.177 78.3875 124.458 78.144C125.34 77.3798 126.272 76.6798 127.246 76.0433C127.487 75.8872 127.723 75.7271 127.968 75.5775C129.881 74.421 131.942 73.5079 134.107 72.8795C134.297 72.8241 134.494 72.7833 134.686 72.7327C135.925 72.4023 137.192 72.1642 138.48 72.0234C138.82 71.9871 139.163 71.962 139.507 71.9385C141.711 71.7869 143.961 71.8973 146.219 72.3413C146.786 72.4517 147.381 72.6049 147.977 72.7598L163.286 76.9046L167.448 78.015L171.612 79.1254L200.931 87.0346L202.654 87.5036L202.474 88.0515C199.435 99.6028 192.627 109.163 183.746 115.776C182.75 116.538 181.69 117.25 180.636 117.926C179.584 118.603 178.545 119.209 177.443 119.766C167.304 125.287 155.263 127.376 143.176 125.006Z" fill="#284275" stroke="white" stroke-width="5" stroke-linejoin="round"/>
<path d="M227.961 149.683L228.039 149.642L208.329 142.382L197.031 138.182L197.044 138.227L196.968 138.198L203.452 162.399L218.024 154.839L228.017 149.704L227.961 149.683Z" fill="#284275" stroke="white" stroke-width="5" stroke-linejoin="round"/>
</svg>
